<svg width="70" height="70" viewBox="0 0 70 70" fill="none" xmlns="http://www.w3.org/2000/svg">
<path d="M68.9039 3.14451e-09H35H1.09607C0.490684 3.14451e-09 0 0.493077 0 1.10128V15.199V68.0652C0 68.6734 0.490684 69.1667 1.09607 69.1667H35H68.9039C69.5092 69.1667 70 68.6736 70 68.0652V15.199V1.10128C70 0.493077 69.5093 3.14451e-09 68.9039 3.14451e-09ZM67.808 66.9638H35H2.19201V16.3004H35H67.808V66.9638ZM67.808 14.0976H35H2.19201V2.2027H35H67.808V14.0976Z" transform="translate(0 0.330078)" fill="#333333"/>
<path d="M13.9563 -6.28902e-08H1.09607C0.490819 -6.28902e-08 -9.34601e-07 0.493077 -9.34601e-07 1.10142C-9.34601e-07 1.70963 0.490682 2.20284 1.09607 2.20284H13.9563C14.5615 2.20284 15.0523 1.70976 15.0523 1.10142C15.0523 0.493215 14.5615 -6.28902e-08 13.9563 -6.28902e-08Z" transform="translate(44.4258 5.0293)" fill="#333333"/>
<path d="M3.43424 -6.28902e-08H1.09607C0.490821 -6.28902e-08 5.00679e-07 0.493077 5.00679e-07 1.10142C5.00679e-07 1.70963 0.490684 2.20284 1.09607 2.20284H3.43424C4.03949 2.20284 4.53031 1.70976 4.53031 1.10142C4.53017 0.493215 4.03949 -6.28902e-08 3.43424 -6.28902e-08Z" transform="translate(60.7935 5.0293)" fill="#333333"/>
<path d="M4.60332 1.17395e-07C4.079 1.17395e-07 3.56262 0.0888886 3.06906 0.26433C3.06783 0.264742 3.06687 0.265429 3.06564 0.265704C1.23197 0.918835 -4.50611e-07 2.6705 -4.50611e-07 4.62591C-4.50611e-07 6.58118 1.23197 8.33285 3.06551 8.98612C3.06674 8.98653 3.0677 8.98722 3.06893 8.98763C3.56262 9.16293 4.07887 9.25196 4.60318 9.25196C7.1415 9.25196 9.2065 7.17675 9.2065 4.62619C9.2065 2.07562 7.14164 1.17395e-07 4.60332 1.17395e-07ZM4.60332 7.04884C4.32838 7.04884 4.05808 7.00227 3.79941 6.9105C3.79928 6.9105 3.79914 6.91036 3.799 6.91036C2.83787 6.56854 2.19201 5.65053 2.19201 4.62577C2.19201 3.60101 2.83773 2.68314 3.79914 2.34119C3.79928 2.34119 3.79941 2.34119 3.79955 2.34105C4.05809 2.24914 4.32852 2.2027 4.60346 2.2027C5.93305 2.2027 7.01476 3.2897 7.01476 4.62577C7.01476 5.96185 5.93291 7.04884 4.60332 7.04884Z" transform="translate(31.5659 3.85498)" fill="#333333"/>
<path d="M4.60332 1.17395e-07C2.065 1.17395e-07 3.33786e-08 2.07521 3.33786e-08 4.62577C3.33786e-08 7.17634 2.06514 9.25155 4.60332 9.25155C7.1415 9.25155 9.20664 7.17648 9.20664 4.62577C9.20664 2.07507 7.1415 1.17395e-07 4.60332 1.17395e-07ZM4.60332 7.04885C3.27373 7.04885 2.19201 5.96185 2.19201 4.62577C2.19201 3.2897 3.27373 2.2027 4.60332 2.2027C5.93291 2.2027 7.01463 3.2897 7.01463 4.62577C7.01463 5.96185 5.93277 7.04885 4.60332 7.04885Z" transform="translate(18.7058 3.85498)" fill="#333333"/>
<path d="M4.60332 1.17395e-07C2.065 1.17395e-07 7.09295e-08 2.07521 7.09295e-08 4.62577C7.09295e-08 7.17634 2.06514 9.25155 4.60332 9.25155C7.1415 9.25155 9.20664 7.17648 9.20664 4.62577C9.20664 2.07507 7.14164 1.17395e-07 4.60332 1.17395e-07ZM4.60332 7.04885C3.27373 7.04885 2.19201 5.96185 2.19201 4.62577C2.19201 3.2897 3.27373 2.2027 4.60332 2.2027C5.93291 2.2027 7.01463 3.2897 7.01463 4.62577C7.01463 5.96185 5.93291 7.04885 4.60332 7.04885Z" transform="translate(5.8457 3.85498)" fill="#333333"/>
<path d="M56.9189 11.9527L45.3455 0.322616C44.9174 -0.107538 44.2235 -0.107538 43.7954 0.322616L36.4174 7.73677H26.2318H1.09607C0.49082 7.73677 4.42266e-07 8.22985 4.42266e-07 8.83819C4.42266e-07 9.44654 0.490684 9.93961 1.09607 9.93961H26.2318H34.2252L25.4568 18.7508L17.7116 26.5337H1.09607C0.49082 26.5337 4.42266e-07 27.0268 4.42266e-07 27.6352C4.42266e-07 28.2435 0.490684 28.7366 1.09607 28.7366H15.5195L13.1573 31.1103C13.156 31.1116 13.1549 31.1127 13.1536 31.114L13.1517 31.116C13.1482 31.1194 13.1455 31.123 13.1422 31.1265C13.1205 31.1491 13.0993 31.1722 13.0792 31.1966C13.0717 31.2055 13.0655 31.2152 13.0583 31.2244C13.0435 31.2436 13.0287 31.2628 13.0152 31.2833C13.0063 31.2966 12.9985 31.3106 12.9902 31.3244C12.9801 31.3411 12.9696 31.3578 12.9604 31.3752C12.9511 31.3928 12.943 31.4109 12.9347 31.4288C12.928 31.4432 12.9207 31.4572 12.9147 31.4721C12.9056 31.4943 12.8978 31.5173 12.89 31.5401C12.8862 31.5513 12.8818 31.5622 12.8782 31.5737C12.8695 31.6029 12.8622 31.6323 12.8561 31.6619C12.8548 31.6677 12.8531 31.6731 12.8518 31.6788L12.8512 31.6823C12.8509 31.6836 12.8506 31.6849 12.8505 31.6862L10.135 45.3308H1.09607C0.49082 45.3308 4.42266e-07 45.8239 4.42266e-07 46.4323C4.42266e-07 47.0405 0.490684 47.5337 1.09607 47.5337H11.0275C11.0291 47.5337 11.0306 47.5338 11.0324 47.5338C11.0328 47.5338 11.0331 47.5338 11.0336 47.5338C11.034 47.5338 11.0343 47.5338 11.0348 47.5338C11.0365 47.5338 11.0381 47.5337 11.0398 47.5337H11.8978C12.1903 47.5337 12.4552 47.4179 12.6517 47.2303L17.442 46.2675C17.4427 46.2674 17.4434 46.2673 17.4441 46.2671L17.4485 46.2663L25.7083 44.6063C25.7093 44.6061 25.7104 44.6059 25.7115 44.6057L25.7153 44.605C25.7217 44.6037 25.7277 44.6016 25.7342 44.6002C25.7629 44.5939 25.7914 44.587 25.8196 44.5785C25.8316 44.5748 25.843 44.5701 25.8549 44.5662C25.8769 44.5585 25.8992 44.551 25.9208 44.5421C25.9361 44.5357 25.9507 44.5281 25.9656 44.5211C25.9828 44.513 26.0002 44.5053 26.0172 44.4961C26.0349 44.4865 26.0518 44.4758 26.0688 44.4655C26.0821 44.4573 26.0958 44.4498 26.1086 44.4411C26.129 44.4275 26.1483 44.4126 26.1676 44.3977C26.1766 44.3907 26.1862 44.3844 26.195 44.3768C26.219 44.3571 26.2417 44.336 26.2638 44.3143C26.2675 44.3106 26.2716 44.3077 26.275 44.304L26.2772 44.3018C26.2784 44.3006 26.2795 44.2996 26.2806 44.2984L27.0065 43.569L42.0874 28.4145L48.6519 21.818L56.9186 13.511C57.3468 13.0801 57.3468 12.3827 56.9189 11.9527ZM18.9405 28.4137C18.9406 28.4136 18.9407 28.4135 18.9409 28.4135L27.007 20.308L36.3039 10.9657L38.4739 13.1465L17.647 34.075L15.4768 31.8943L18.9405 28.4137ZM40.0237 14.7041L42.6072 17.3002L33.0976 26.8562L25.4569 34.5341L21.7804 38.2286L19.197 35.6325L40.0237 14.7041ZM12.4307 45.0278L12.9467 42.4354L15.0105 44.5093L12.4307 45.0278ZM17.5938 43.9902L13.4634 39.8397L14.6001 34.1286L16.872 36.4116L21.0055 40.5652L23.2775 42.8481L17.5938 43.9902ZM40.5377 26.8562L25.5004 41.9667L23.3302 39.7861L27.0067 36.0917L34.6474 28.4137L44.157 18.8577L46.327 21.0383L40.5377 26.8562ZM47.8771 19.4808L44.9322 16.5215L40.7986 12.3679L37.8537 9.40848L44.5706 2.659L54.594 12.7313L47.8771 19.4808Z" transform="translate(8.76831 17.2648)" fill="#333333"/>
<path d="M4.5015 0.322615C4.07357 -0.10754 3.37945 -0.10754 2.95152 0.322615L0.32105 2.96592C-0.107016 3.39607 -0.107016 4.09344 0.32105 4.52346C0.535015 4.73847 0.815562 4.84604 1.09597 4.84604C1.37638 4.84604 1.65693 4.7386 1.87089 4.52346L4.50136 1.88016C4.92956 1.45 4.92956 0.752495 4.5015 0.322615Z" transform="translate(49.3945 22.651)" fill="#333333"/>
</svg>
