<svg width="539" height="512" viewBox="0 0 539 512" fill="none" xmlns="http://www.w3.org/2000/svg">
<g id="deal">
<g id="Group">
<g id="Group_2">
<path id="Vector" d="M60.9667 -2.16947e-07H52.7C52.1293 -2.16947e-07 51.6667 0.454716 51.6667 1.01556V2.03112H26.8667C26.5926 2.03112 26.3298 2.13826 26.1361 2.32868L24.8 3.6418L23.4639 2.32868C23.2702 2.13826 23.0074 2.03112 22.7333 2.03112H10.3333V1.01556C10.3333 0.454716 9.87066 -2.16947e-07 9.3 -2.16947e-07H1.03333C0.462675 -2.16947e-07 0 0.454716 0 1.01556V29.4512C0 30.0121 0.462675 30.4668 1.03333 30.4668H9.3C9.87066 30.4668 10.3333 30.0121 10.3333 29.4512V28.4357H11.1228C11.7064 29.7942 13.1961 30.547 14.6599 30.223C15.0391 31.8639 16.7 32.8919 18.3696 32.5192C18.7332 33.911 20.0075 34.8857 21.4696 34.8906C21.6742 34.8869 21.8779 34.8644 22.0782 34.8235C22.5289 36.513 24.2877 37.5236 26.0068 37.0807C26.798 36.8769 27.4805 36.3847 27.9155 35.704L28.6027 34.6306L31.8143 37.7859C33.0674 39.0235 35.1043 39.0283 36.3634 37.7966C36.9457 37.2271 37.2841 36.4602 37.3095 35.6532C39.0017 35.607 40.3625 34.2697 40.4095 32.6066C42.1017 32.5604 43.4625 31.223 43.5095 29.5599C44.8498 29.5304 46.0252 28.6727 46.4411 27.4201L51.6667 28.2803V29.4512C51.6667 30.0121 52.1293 30.4668 52.7 30.4668H60.9667C61.5373 30.4668 62 30.0121 62 29.4512V1.01556C62 0.454716 61.5373 -2.16947e-07 60.9667 -2.16947e-07ZM8.26667 3.04668V28.4357H2.06667V2.03112H8.26667V3.04668ZM15.0422 27.7349C14.6998 28.2677 13.9827 28.4269 13.4406 28.0904C12.8985 27.7538 12.7365 27.049 13.0789 26.5163L16.1934 21.6548C16.4057 21.3228 16.7771 21.1216 17.1761 21.1226C17.3955 21.1212 17.6107 21.1819 17.7961 21.2973C18.3368 21.6328 18.4994 22.3349 18.1598 22.8673L15.0422 27.7349ZM18.7519 30.0301C18.4112 30.5629 17.6954 30.7235 17.1533 30.3886C16.6112 30.0537 16.4478 29.3503 16.7886 28.8175L19.903 23.956C20.2438 23.4232 20.9595 23.2627 21.5016 23.5975C22.0437 23.9324 22.2071 24.6358 21.8664 25.1686L18.7519 30.0301ZM22.4605 32.3263C22.1198 32.8591 21.4041 33.0196 20.862 32.6848C20.3199 32.3499 20.1565 31.6465 20.4972 31.1137L23.6117 26.2522C23.9524 25.7194 24.6681 25.5588 25.2102 25.8937C25.7523 26.2286 25.9157 26.932 25.575 27.4648L22.4605 32.3263ZM29.2857 29.7559L26.1712 34.6174C25.8288 35.1502 25.1117 35.3093 24.5696 34.9728C24.0275 34.6363 23.8655 33.9315 24.2079 33.3987L27.3224 28.5382C27.4851 28.281 27.7454 28.0984 28.0457 28.0305C28.1306 28.0123 28.2172 28.0032 28.304 28.003C28.9432 28.003 29.4614 28.5122 29.4614 29.1405C29.4614 29.3554 29.3994 29.566 29.2826 29.7478L29.2857 29.7559ZM34.9153 36.3499L34.9175 36.3478C34.9167 36.3485 34.9161 36.3491 34.9153 36.3499ZM34.9184 36.3467C34.4654 36.7896 33.7332 36.7894 33.2806 36.3459L29.7373 32.8635L31 30.8913L34.9153 34.7392C35.3675 35.1825 35.3688 35.9019 34.9184 36.3467ZM44.2216 27.2077C44.2209 27.2085 44.2202 27.2091 44.2194 27.2099V27.2058C43.7666 27.6497 43.0334 27.6497 42.5806 27.2058L36.8972 21.6202L35.4361 23.0562L41.1194 28.6418C41.572 29.0866 41.572 29.8077 41.1194 30.2525C40.6668 30.6973 39.9332 30.6973 39.4806 30.2525L33.7972 24.6669L32.3361 26.1029L38.0194 31.6885C38.472 32.1333 38.472 32.8544 38.0194 33.2992C37.5668 33.744 36.8332 33.744 36.3806 33.2992L31.7306 28.7292L31.4516 28.456V28.4478C31.0705 26.7821 29.4096 25.717 27.7047 26.045C27.284 24.4341 25.6559 23.4269 23.9961 23.7509C23.5758 22.1382 21.9455 21.1301 20.2843 21.4557C19.8397 19.767 18.0864 18.7522 16.3683 19.189C15.5709 19.3917 14.8832 19.8876 14.447 20.5741L11.3326 25.4357C11.1458 25.7348 11.0107 26.0622 10.9327 26.4045H10.3333V4.06224H22.3055L23.3389 5.0778L20.9694 7.40647C19.4246 8.92473 19.4246 11.3865 20.9694 12.9047C22.5143 14.423 25.0191 14.423 26.5639 12.9047L28.9333 10.576L44.2194 25.5992C44.672 26.0427 44.6729 26.763 44.2216 27.2077ZM51.6667 26.2207L46.996 25.456L45.6806 24.1632L29.6639 8.42203C29.2604 8.02558 28.6063 8.02558 28.2028 8.42203L25.1028 11.4687C24.3551 12.1705 23.1782 12.1705 22.4306 11.4687C21.6934 10.7432 21.6934 9.56797 22.4306 8.84247L27.2945 4.06224H51.6667V26.2207ZM59.9333 28.4357H53.7333V2.03112H59.9333V28.4357Z" transform="translate(0 176.013) scale(8.67797)" fill="#333333"/>
</g>
</g>
<g id="Group_3">
<g id="Group_4">
<path id="Vector_2" d="M8.26667 -2.16947e-07C3.70114 -2.16947e-07 0 3.63748 0 8.12447C0.00516667 12.6094 3.70321 16.2439 8.26667 16.2489C12.8322 16.2489 16.5333 12.6115 16.5333 8.12447C16.5333 3.63748 12.8322 -2.16947e-07 8.26667 -2.16947e-07ZM8.26667 11.1712C7.69601 11.1712 7.23333 10.7164 7.23333 10.1556H5.16667C5.17209 11.4421 5.99915 12.5866 7.23333 13.0154V14.1264C3.86053 13.5689 1.58617 10.4298 2.15347 7.11501C2.59121 4.55694 4.6305 2.55273 7.23333 2.12252V3.23354C5.62224 3.79121 4.7762 5.52693 5.34375 7.11031C5.78034 8.32847 6.95253 9.14257 8.26667 9.14003C8.83733 9.14003 9.3 9.59475 9.3 10.1556C9.3 10.7164 8.83733 11.1712 8.26667 11.1712ZM9.3 14.1264V13.0154C10.9111 12.4577 11.7571 10.722 11.1896 9.13864C10.753 7.92047 9.58081 7.10638 8.26667 7.10891C7.69601 7.10891 7.23333 6.6542 7.23333 6.09336C7.23333 5.53251 7.69601 5.0778 8.26667 5.0778C8.83733 5.0778 9.3 5.53251 9.3 6.09336H11.3667C11.3612 4.8069 10.5342 3.66236 9.3 3.23354V2.12252C12.6728 2.68006 14.9472 5.81915 14.3799 9.13394C13.9421 11.6919 11.9028 13.6962 9.3 14.1264Z" transform="translate(197.28 35.0064) scale(8.67797)" fill="#333333"/>
</g>
</g>
<g id="Group_5">
<g id="Group_6">
<path id="Vector_3" d="M1.07053 -4.06775e-08L-1.79749e-06 1.73356C0.57014 2.07339 1.1191 2.44648 1.64404 2.85067L2.9202 1.25523C2.32965 0.801022 1.71198 0.38185 1.07053 -4.06775e-08Z" transform="translate(343.212 22.6059) scale(8.67797)" fill="#333333"/>
</g>
</g>
<g id="Group_7">
<g id="Group_8">
<path id="Vector_4" d="M0.614832 4.06775e-08L1.67135e-06 1.93972C0.637052 2.13471 1.26157 2.36701 1.87033 2.63538L2.71663 0.782996C2.0327 0.480486 1.3308 0.219107 0.614832 4.06775e-08Z" transform="translate(311.648 6.88136) scale(8.67797)" fill="#333333"/>
</g>
</g>
<g id="Group_9">
<g id="Group_10">
<path id="Vector_5" d="M1.76803 -3.48665e-07L2.52279e-07 1.0511C0.345263 1.6108 0.655519 2.19081 0.928965 2.78771L2.81377 1.95394C2.5057 1.2824 2.15657 0.6299 1.76803 -3.48665e-07Z" transform="translate(391.814 76.303) scale(8.67797)" fill="#333333"/>
</g>
</g>
<g id="Group_11">
<g id="Group_12">
<path id="Vector_6" d="M1.46113 -1.20096e-07L-2.83813e-07 1.43295C0.472362 1.89656 0.916436 2.38733 1.3299 2.90247L2.95017 1.65028C2.48697 1.07205 1.98981 0.521109 1.46113 -1.20096e-07Z" transform="translate(370.462 46.2415) scale(8.67797)" fill="#333333"/>
</g>
</g>
<g id="Group_13">
<g id="Group_14">
<path id="Vector_7" d="M1.97263 2.47939e-07L-1.26139e-06 0.602226C0.197495 1.2273 0.356501 1.86355 0.476368 2.50742L2.50893 2.14486C2.37512 1.41975 2.19596 0.703402 1.97263 2.47939e-07Z" transform="translate(406.034 111.193) scale(8.67797)" fill="#333333"/>
</g>
</g>
<g id="Group_15">
<g id="Group_16">
<path id="Vector_8" d="M0.121934 -3.00239e-08L7.56836e-07 2.03112C0.665209 2.07034 1.32732 2.14867 1.98297 2.26571L2.3529 0.262014C1.61523 0.131261 0.870197 0.043669 0.121934 -3.00239e-08Z" transform="translate(277.597 0.0338983) scale(8.67797)" fill="#333333"/>
</g>
</g>
<g id="Group_17">
<g id="Group_18">
<path id="Vector_9" d="M1.48903 -1.51088e-07C0.95945 0.521616 0.462158 1.07408 -3.15348e-07 1.65435L1.63267 2.90653C2.04212 2.3924 2.48245 1.90265 2.9512 1.44006L1.48903 -1.51088e-07Z" transform="translate(141.86 46.303) scale(8.67797)" fill="#333333"/>
</g>
</g>
<g id="Group_19">
<g id="Group_20">
<path id="Vector_10" d="M1.04367 -4.10649e-07C0.656425 0.631297 0.307805 1.28481 3.70534e-07 1.95698L1.8848 2.78974C2.15967 2.19297 2.47083 1.61309 2.81687 1.05314L1.04367 -4.10649e-07Z" transform="translate(121.72 76.4258) scale(8.67797)" fill="#333333"/>
</g>
</g>
<g id="Group_21">
<g id="Group_22">
<path id="Vector_11" d="M0.5332 -2.55687e-07C0.311421 0.704671 0.133429 1.42204 1.10372e-07 2.14791L2.03257 2.50945C2.15153 1.86457 2.31002 1.2273 2.50687 0.601211L0.5332 -2.55687e-07Z" transform="translate(110.191 111.369) scale(8.67797)" fill="#333333"/>
</g>
</g>
<g id="Group_23">
<g id="Group_24">
<path id="Vector_12" d="M1.84657 -7.16699e-08C1.20603 0.382485 0.589387 0.802292 -3.31116e-07 1.25726L1.27823 2.85372C1.80226 2.44978 2.35019 2.07669 2.91917 1.73661L1.84657 -7.16699e-08Z" transform="translate(169.356 22.6674) scale(8.67797)" fill="#333333"/>
</g>
</g>
<g id="Group_25">
<g id="Group_26">
<path id="Vector_13" d="M2.23097 2.22758e-08C1.48258 0.0445577 0.737542 0.133419 3.15348e-08 0.266076L0.3689 2.26774C1.02584 2.14981 1.68937 2.07072 2.356 2.03112L2.23097 2.22758e-08Z" transform="translate(239.809) scale(8.67797)" fill="#333333"/>
</g>
</g>
<g id="Group_27">
<g id="Group_28">
<path id="Vector_14" d="M2.09973 -3.7772e-08C1.38428 0.220122 0.683162 0.482644 -7.09534e-07 0.786043L0.8494 2.63639C1.4579 2.36701 2.08255 2.13394 2.71973 1.9387L2.09973 -3.7772e-08Z" transform="translate(202.614 6.93644) scale(8.67797)" fill="#333333"/>
</g>
</g>
</g>
</svg>
