<svg width="70" height="71" viewBox="0 0 70 71" fill="none" xmlns="http://www.w3.org/2000/svg">
<path d="M54.9827 29.2595H52.6918V9.66239L42.8567 0H20.6185V11.2537H2.29095V29.2595H-1.92264e-07V36.4776L22.9095 58.9849V69.7727H32.0733V58.9849L54.9827 36.4776V29.2595ZM43.528 6.75219V4.50146V3.842L48.7811 9.00293H43.528V6.75219ZM22.9095 2.25073H41.237V4.50146H25.2004V6.75219H41.237V9.00293H25.2004V11.2537H41.237H50.4008V29.2595H34.3642V24.758H48.1099V22.5073H34.3642V20.916L33.693 20.2566H48.1099V18.0059H31.402L29.1111 15.7551H48.1099V13.5044H26.8201L24.5292 11.2537H22.9095V2.25073ZM30.4536 20.2566H25.2004V18.0059V15.7551H25.8717L30.4536 20.2566ZM4.58189 13.5044H22.9095V15.7551H6.87284V18.0059H22.9095V20.2566H6.87284V22.5073H22.9095H32.0733V29.2595H4.58189V13.5044ZM52.6918 34.8863H42.3825V37.1371H51.0721L29.7823 58.0531V67.5219H25.2004V58.0531L3.91065 37.1371H40.0916V34.8863H2.29095V31.5102H34.3642H52.6918V34.8863Z" transform="translate(7.50879 0.330078)" fill="#333333"/>
<path d="M22.9095 0H0V2.25073H22.9095V0Z" transform="translate(14.3813 25.0879)" fill="#333333"/>
<path d="M2.29095 0H0V2.25073H2.29095V0Z" transform="translate(15.5269 48.7207)" fill="#333333"/>
<path d="M17.8178 16.6532V6.75219H15.5269V18.1533L10.945 21.1546L6.3631 18.1533V0H4.07216V16.6532L1.27148 14.8188L4.36963e-09 16.6914L10.945 23.86L21.89 16.6914L20.6185 14.8188L17.8178 16.6532Z" transform="translate(0 46.4701)" fill="#333333"/>
<path d="M2.29095 0H0V2.25073H2.29095V0Z" transform="translate(4.07227 41.9688)" fill="#333333"/>
<path d="M2.29095 0H0V11.2537H2.29095V0Z" transform="translate(9.7998 53.2217)" fill="#333333"/>
<path d="M2.29095 0H0V2.25073H2.29095V0Z" transform="translate(9.7998 48.7207)" fill="#333333"/>
<path d="M2.29095 0H1.99255e-06V2.25073H2.29095V0Z" transform="translate(52.1816 50.9717)" fill="#333333"/>
<path d="M20.6185 12.5681L17.8178 14.4024V4.50146V0H15.5269V4.50146V15.9025L10.945 18.9039L6.36311 15.9025V6.75219H4.07216V14.4024L1.27147 12.5681L1.64298e-06 14.4407L10.945 21.6093L21.89 14.4407L20.6185 12.5681Z" transform="translate(48.1099 48.7207)" fill="#333333"/>
<path d="M2.29095 0H1.99255e-06V2.25073H2.29095V0Z" transform="translate(63.6372 44.2197)" fill="#333333"/>
<path d="M2.29095 0H1.99255e-06V11.2537H2.29095V0Z" transform="translate(57.9092 53.2217)" fill="#333333"/>
<path d="M2.29095 0H1.99255e-06V2.25073H2.29095V0Z" transform="translate(57.9092 48.7207)" fill="#333333"/>
</svg>
