<svg width="63" height="63" viewBox="0 0 63 63" fill="none" xmlns="http://www.w3.org/2000/svg">
<path d="M16.4209 14.5856C15.7037 14.1096 14.8856 13.8069 14.0311 13.7015C15.6699 12.4118 16.6779 10.4819 16.8 8.40005C16.8 1.45745 12.8026 4.76837e-05 9.45 4.76837e-05C6.09735 4.76837e-05 2.1 1.45745 2.1 8.40005C2.22206 10.4819 3.23006 12.4118 4.86885 13.7015C2.08556 14.0445 -0.00406875 16.4106 0 19.215V27.3H2.1V19.215C2.1 17.3014 3.65137 15.75 5.565 15.75H7.896H7.99999C7.5 15.75 8.87891 15.75 8.49999 15.75H9.61328C9.41797 15.75 10.5 15.75 9.99999 15.75H10.5C9.83594 15.75 10.3828 15.75 10.8438 15.75H11.0008H13.335C15.2486 15.75 16.8 17.3014 16.8 19.215V27.3H18.9V19.215C18.9008 17.3542 17.9702 15.6164 16.4209 14.5856ZM4.2546 7.28915C4.53915 3.7706 6.195 2.10005 9.45 2.10005C12.4299 2.10005 14.07 3.50915 14.5393 6.44915L11.0407 4.34915C10.5434 4.05081 9.89848 4.21212 9.60015 4.70943C9.56077 4.77506 9.52875 4.84461 9.5046 4.9172C8.9733 6.5111 6.10575 7.1138 4.2546 7.28915ZM9.45 13.65C7.10811 13.2512 5.15996 11.6272 4.34595 9.39545C6.14355 9.2474 9.38595 8.70245 10.8979 6.71375L14.6517 8.966C14.2296 11.5364 11.0617 13.65 9.45 13.65Z" transform="translate(0 35.7)" fill="#333333"/>
<path d="M2.1 0H0V4.2H2.1V0Z" transform="translate(4.19995 58.8)" fill="#333333"/>
<path d="M2.1 0H0V4.2H2.1V0Z" transform="translate(12.6001 58.8)" fill="#333333"/>
<path d="M16.421 14.5855C15.7037 14.1095 14.8856 13.8068 14.0312 13.7015C15.6699 12.4118 16.6779 10.4819 16.8 8.4C16.8 1.4574 12.8027 0 9.45 0C6.09735 0 2.10001 1.4574 2.10001 8.4C2.22207 10.4819 3.23007 12.4118 4.86885 13.7015C2.08557 14.0444 -0.00406282 16.4106 5.93148e-06 19.215V27.3H2.10001V19.215C2.10001 17.3014 3.65138 15.75 5.565 15.75H11.0009H8.70555C8.28293 15.75 8.94995 15.75 9.45 15.75H9.60015C9.94995 15.75 9.56128 15.75 10.1433 15.75C10.7254 15.75 11.1151 15.75 10.45 15.75H11.0009H13.335C15.2486 15.75 16.8 17.3014 16.8 19.215V27.3H18.9V19.215C18.9008 17.3541 17.9702 15.6164 16.421 14.5855ZM4.25461 7.2891C4.53916 3.77055 6.19501 2.1 9.45 2.1C12.4299 2.1 14.07 3.5091 14.5394 6.4491L11.0408 4.3491C10.5434 4.05077 9.89849 4.21208 9.60015 4.70938C9.56078 4.77501 9.52875 4.84457 9.5046 4.91715C8.9733 6.51105 6.10575 7.11375 4.25461 7.2891ZM9.45 13.65C7.10811 13.2511 5.15997 11.6272 4.34596 9.3954C6.14356 9.24735 9.38595 8.7024 10.898 6.7137L14.6517 8.96595C14.2296 11.5364 11.0618 13.65 9.45 13.65Z" transform="translate(22.05 29.3999)" fill="#333333"/>
<path d="M2.1 0H0V4.2H2.1V0Z" transform="translate(26.25 52.5)" fill="#333333"/>
<path d="M2.1 0H0V4.2H2.1V0Z" transform="translate(34.6499 52.5)" fill="#333333"/>
<path d="M16.421 14.5855C15.7037 14.1095 14.8856 13.8068 14.0312 13.7015C15.6699 12.4118 16.6779 10.4819 16.8 8.4C16.8 1.4574 12.8027 0 9.45 0C6.09735 0 2.10001 1.4574 2.10001 8.4C2.22207 10.4819 3.23007 12.4118 4.86886 13.7015C2.08557 14.0444 -0.00406282 16.4106 5.93148e-06 19.215V27.3H2.10001V19.215C2.10001 17.3014 3.65138 15.75 5.565 15.75H7.89601H8.3999C7.66553 15.75 9.3999 15.75 8.8999 15.75H9.3999C8.8999 15.75 10.3999 15.75 9.8999 15.75H10.3999C9.77881 15.75 11.4351 15.75 10.8569 15.75H11.0009H13.335C15.2486 15.75 16.8 17.3014 16.8 19.215V27.3H18.9V19.215C18.9008 17.3541 17.9702 15.6164 16.421 14.5855ZM4.2546 7.2891C4.53915 3.77055 6.19501 2.1 9.45 2.1C12.4299 2.1 14.07 3.5091 14.5394 6.4491L11.0408 4.3491C10.5434 4.05077 9.89849 4.21208 9.60016 4.70938C9.56078 4.77501 9.52875 4.84457 9.5046 4.91715C8.9733 6.51105 6.10575 7.11375 4.2546 7.2891ZM9.45 13.65C7.10811 13.2511 5.15997 11.6272 4.34596 9.3954C6.14356 9.24735 9.38596 8.7024 10.898 6.7137L14.6517 8.96595C14.2296 11.5364 11.0618 13.65 9.45 13.65Z" transform="translate(44.1001 35.7)" fill="#333333"/>
<path d="M2.1 0H0V4.2H2.1V0Z" transform="translate(48.3 58.8)" fill="#333333"/>
<path d="M2.1 0H0V4.2H2.1V0Z" transform="translate(56.7 58.8)" fill="#333333"/>
<path d="M22.0481 9.45C22.0557 7.71789 20.6578 6.30748 18.9257 6.29974C18.1388 6.29619 17.3794 6.58862 16.7981 7.119C15.6112 6.02648 13.785 6.02648 12.5981 7.119C11.7526 6.32848 10.5326 6.08449 9.4481 6.489V3.15C9.4481 1.41028 8.03782 0 6.2981 0C4.55838 0 3.1481 1.41028 3.1481 3.15V11.6991C0.9116 12.269 -0.439488 14.5441 0.130399 16.7806C0.572843 18.5168 2.07264 19.7777 3.85895 19.9153C5.50535 23.2184 8.9084 25.2761 12.5981 25.2C17.8082 25.2 22.0481 21.4316 22.0481 16.8C22.0396 16.1611 21.9493 15.526 21.7793 14.91C21.9554 14.5132 22.047 14.0842 22.0481 13.65V9.45ZM13.6481 9.45C13.6481 8.87014 14.1182 8.4 14.6981 8.4C15.278 8.4 15.7481 8.87014 15.7481 9.45V13.65C15.7481 14.2299 15.278 14.7 14.6981 14.7C14.6957 13.8089 14.3138 12.9612 13.6481 12.369V9.45ZM9.4481 9.45C9.4481 8.87014 9.91824 8.4 10.4981 8.4C11.078 8.4 11.5481 8.87014 11.5481 9.45V11.55H9.4481V9.45ZM5.2481 3.15C5.2481 2.57014 5.71824 2.1 6.2981 2.1C6.87796 2.1 7.3481 2.57014 7.3481 3.15V11.55H5.2481V3.15ZM3.48922 17.7178C2.39958 17.3293 1.83114 16.1309 2.21964 15.0413C2.51771 14.2052 3.31046 13.6478 4.1981 13.65H11.5481C11.6628 13.6538 11.7759 13.6769 11.883 13.7183C11.9316 13.7353 11.979 13.7557 12.0248 13.7792C12.5386 14.0365 12.7465 14.6617 12.4892 15.1755C12.3111 15.5311 11.9458 15.7541 11.5481 15.75H7.1549C6.71075 15.7501 6.31464 16.0297 6.1658 16.4482C5.7773 17.538 4.57886 18.1063 3.48922 17.7178ZM12.5981 23.1C9.91732 23.1672 7.40113 21.8113 5.9831 19.5352C6.75196 19.1719 7.39286 18.5843 7.82165 17.85H11.5481C12.4392 17.8476 13.2869 17.4657 13.8791 16.8H14.6981C15.4756 16.7976 16.2243 16.5056 16.7981 15.981C17.6397 16.7667 18.8526 17.0104 19.9323 16.611C19.9323 16.674 19.9481 16.737 19.9481 16.8C19.9481 20.2745 16.6511 23.1 12.5981 23.1ZM19.9481 13.65C19.9481 14.2299 19.478 14.7 18.8981 14.7C18.3182 14.7 17.8481 14.2299 17.8481 13.65V9.45C17.8481 8.87014 18.3182 8.4 18.8981 8.4C19.478 8.4 19.9481 8.87014 19.9481 9.45V13.65Z" transform="translate(19.9519)" fill="#333333"/>
<path d="M2.08635 -9.93347e-07L1.60217e-07 0.236249C0.0765189 0.912843 0.196481 1.58379 0.3591 2.2449L2.40135 1.7409C2.25908 1.16799 2.15381 0.586424 2.08635 -9.93347e-07Z" transform="translate(15.8445 28.8403)" fill="#333333"/>
<path d="M1.69365 -1.95465e-06L-9.45282e-07 1.24005C0.402674 1.7896 0.840394 2.31249 1.3104 2.8056L2.82975 1.3566C2.42248 0.929121 2.04304 0.475911 1.69365 -1.95465e-06Z" transform="translate(18.7888 35.3608)" fill="#333333"/>
<path d="M0.682501 -3.52478e-07C0.413832 0.626193 0.18585 1.26906 1.36185e-07 1.92465L2.02125 2.49585C2.1819 1.9278 2.3793 1.37077 2.6124 0.828449L0.682501 -3.52478e-07Z" transform="translate(16.3423 21.0808)" fill="#333333"/>
<path d="M1.95615 9.45282e-07L1.76239e-07 0.76335C0.247931 1.39873 0.537338 2.01705 0.866251 2.6145L2.7048 1.6002C2.42078 1.0836 2.17061 0.549151 1.95615 9.45282e-07Z" transform="translate(16.8252 32.2676)" fill="#333333"/>
<path d="M0.1659 -2.88391e-07C0.0675937 0.673706 0.012075 1.35306 0 2.03385L2.1 2.0685C2.10958 1.47774 2.15736 0.888168 2.2428 0.303449L0.1659 -2.88391e-07Z" transform="translate(15.75 25.0037)" fill="#333333"/>
<path d="M2.07795 -1.92261e-07L6.40869e-07 0.3066C0.0867569 0.891187 0.135975 1.48076 0.147 2.07165L2.247 2.0349C2.23427 1.35371 2.17783 0.673969 2.07795 -1.92261e-07Z" transform="translate(45.0029 24.9817)" fill="#333333"/>
<path d="M0.308698 8.01086e-07C0.244254 0.586426 0.141093 1.16799 -5.76782e-07 1.7409L2.0391 2.24385C2.20172 1.58143 2.32103 0.909038 2.3961 0.231L0.308698 8.01086e-07Z" transform="translate(44.7573 28.8225)" fill="#333333"/>
<path d="M1.13505 9.61304e-07C0.785925 0.47657 0.406874 0.9303 -1.34583e-06 1.3587L1.52145 2.8056C1.99054 2.31184 2.4276 1.78868 2.82975 1.239L1.13505 9.61304e-07Z" transform="translate(41.3899 35.3484)" fill="#333333"/>
<path d="M1.9278 -8.3313e-07L1.98669e-06 0.8337C0.233758 1.37497 0.431944 1.93082 0.593251 2.49795L2.61345 1.92465C2.42708 1.26892 2.19791 0.62593 1.9278 -8.3313e-07Z" transform="translate(44.0381 21.0601)" fill="#333333"/>
<path d="M0.7476 -9.93347e-07C0.533531 0.549805 0.283761 1.08504 -1.85852e-06 1.6023L1.84065 2.61345C2.16891 2.01561 2.45765 1.39689 2.7048 0.761249L0.7476 -9.93347e-07Z" transform="translate(43.4763 32.2529)" fill="#333333"/>
<path d="M2.1 0H0V2.1H2.1V0Z" transform="translate(45.1501)" fill="#333333"/>
<path d="M2.1 0H0V2.1H2.1V0Z" transform="translate(43.05 2.1001)" fill="#333333"/>
<path d="M2.1 0H0V2.1H2.1V0Z" transform="translate(45.1501 4.19995)" fill="#333333"/>
<path d="M2.1 0H0V2.1H2.1V0Z" transform="translate(47.25 2.1001)" fill="#333333"/>
<path d="M2.1 0H0V2.1H2.1V0Z" transform="translate(51.45)" fill="#333333"/>
<path d="M2.1 0H0V2.1H2.1V0Z" transform="translate(14.7 6.2998)" fill="#333333"/>
<path d="M2.1 0H0V2.1H2.1V0Z" transform="translate(12.6001 8.3999)" fill="#333333"/>
<path d="M2.1 0H0V2.1H2.1V0Z" transform="translate(14.7 10.5)" fill="#333333"/>
<path d="M2.1 0H0V2.1H2.1V0Z" transform="translate(16.8 8.3999)" fill="#333333"/>
<path d="M2.1 0H0V2.1H2.1V0Z" transform="translate(9.44995 3.1499)" fill="#333333"/>
</svg>
