<svg width="220" height="51" viewBox="0 0 220 51" fill="none" xmlns="http://www.w3.org/2000/svg">
<path d="M-1.62104e-06 -3.89099e-07H4.56818V4.743H10.305V8.874H4.56818V15.096C4.56818 17.136 5.25872 18.156 6.69291 18.156C7.59592 18.156 8.49893 17.799 9.45506 17.187L10.8361 20.553C9.40195 21.675 7.64904 22.236 5.57742 22.236C1.64667 22.236 -1.62104e-06 19.89 -1.62104e-06 15.351V-3.89099e-07Z" transform="translate(64 14.6885)" fill="#333333"/>
<path d="M16.3604 15.861C14.6075 17.289 12.3766 18.003 9.5613 18.003C6.63979 18.003 4.35571 17.187 2.6028 15.504C0.849897 13.872 -1.62104e-06 11.679 -1.62104e-06 8.976C-1.62104e-06 6.426 0.849897 4.284 2.6028 2.601C4.30259 0.867001 6.58667 -3.89099e-07 9.45506 -3.89099e-07C11.7923 -3.89099e-07 13.8108 0.765 15.4574 2.244C17.1041 3.723 17.9009 5.61 17.9009 7.956C17.9009 8.925 17.8478 9.69 17.6353 10.302H4.72753C5.09936 12.852 7.22409 14.28 10.0925 14.28C12.111 14.28 13.7576 13.77 15.1387 12.699L16.3604 15.861ZM4.51506 7.395H13.2796C13.3327 5.253 11.7392 3.672 9.18947 3.672C6.58667 3.672 4.99312 4.947 4.51506 7.395Z" transform="translate(75.9517 19.0234)" fill="#333333"/>
<path d="M1.62104e-06 0H4.56817V20.145C4.56817 22.032 5.09936 22.95 6.10861 22.95C6.69291 22.95 7.27721 22.746 7.96775 22.287L8.92388 25.653C7.70216 26.622 6.10861 27.081 4.19635 27.081C1.38107 27.081 1.62104e-06 25.347 1.62104e-06 21.981V0Z" transform="translate(96.4556 9.94531)" fill="#333333"/>
<path d="M16.3604 15.861C14.6075 17.289 12.3766 18.003 9.5613 18.003C6.63979 18.003 4.3557 17.187 2.6028 15.504C0.849892 13.872 1.62104e-06 11.679 1.62104e-06 8.976C1.62104e-06 6.426 0.849892 4.284 2.6028 2.601C4.30258 0.867001 6.58668 -3.89099e-07 9.45507 -3.89099e-07C11.7923 -3.89099e-07 13.8108 0.765 15.4574 2.244C17.1041 3.723 17.9009 5.61 17.9009 7.956C17.9009 8.925 17.8478 9.69 17.6353 10.302H4.72753C5.09936 12.852 7.22409 14.28 10.0925 14.28C12.111 14.28 13.7576 13.77 15.1387 12.699L16.3604 15.861ZM4.51506 7.395H13.2796C13.3327 5.253 11.7392 3.672 9.18947 3.672C6.58668 3.672 5.04624 4.947 4.51506 7.395Z" transform="translate(106.282 19.0234)" fill="#333333"/>
<path d="M0 25.143V0.408H4.56818V2.04C5.73678 0.867001 7.86151 7.78198e-07 10.0925 7.78198e-07C12.5359 7.78198e-07 14.5013 0.816 15.9886 2.448C17.4759 4.08 18.2196 6.171 18.2196 8.721C18.2196 11.373 17.3697 13.617 15.6168 15.351C13.8639 17.085 11.6329 18.003 8.81765 18.003C7.01162 18.003 5.63054 17.748 4.67441 17.187V25.245H0V25.143ZM4.51506 5.967V12.903C5.57743 13.566 6.79915 13.872 8.28646 13.872C11.3673 13.872 13.2796 11.73 13.2796 8.823C13.2796 6.018 11.5798 4.08 8.60518 4.08C7.06474 4.08 5.68366 4.692 4.51506 5.967Z" transform="translate(126.839 19.0742)" fill="#333333"/>
<path d="M1.38108 1.632C3.34646 0.509999 5.41807 7.78198e-07 7.70216 7.78198e-07C12.8015 7.78198e-07 14.82 2.397 14.82 7.14V17.595H10.8361V15.606C9.77377 17.085 7.96775 17.799 5.57743 17.799C2.23097 17.799 3.24209e-06 15.759 3.24209e-06 12.546C3.24209e-06 8.925 2.70903 6.987 6.48043 6.987C8.1271 6.987 9.45506 7.344 10.5174 8.109C10.6237 5.1 9.72066 3.672 7.17098 3.672C5.84302 3.672 4.24946 4.029 2.49656 4.845L1.38108 1.632ZM10.5705 12.495V10.761C9.82689 10.2 8.76453 9.945 7.43657 9.945C5.7899 9.945 4.56818 10.71 4.56818 12.087C4.56818 13.362 5.63054 14.127 7.11786 14.127C8.65829 14.076 9.77377 13.515 10.5705 12.495Z" transform="translate(146.812 19.0742)" fill="#333333"/>
<path d="M19.4944 3.89099e-07L12.4828 17.136C11.208 20.094 10.0394 22.134 9.08323 23.154C8.07398 24.225 6.95851 24.735 5.57743 24.735C4.24947 24.735 2.97463 24.276 1.7529 23.409L3.24021 20.094C3.93075 20.502 4.56817 20.706 5.09935 20.706C6.16172 20.706 7.06474 19.839 7.86151 18.054L8.23335 17.136L6.48417e-06 3.89099e-07H5.47119L9.61441 9.384C9.77377 9.741 10.0394 10.608 10.4643 11.883C10.6768 10.761 10.8893 9.945 11.1017 9.384L14.2888 0.0509996H19.4944V3.89099e-07Z" transform="translate(163.066 19.4824)" fill="#333333"/>
<path d="M3.1871 -7.78198e-07C4.83377 -7.78198e-07 6.10861 1.428 6.10861 2.805C6.10861 4.437 4.83377 5.865 3.1871 5.865C1.27484 5.865 3.24209e-06 4.437 3.24209e-06 2.805C3.24209e-06 1.428 1.27484 -7.78198e-07 3.1871 -7.78198e-07Z" transform="translate(182.135 30.9062)" fill="#333333"/>
<path d="M2.86839 1.9455e-07C4.24947 1.9455e-07 5.47119 1.02 5.47119 2.55C5.47119 4.233 4.24947 5.304 2.86839 5.304C1.22172 5.304 6.48417e-06 4.233 6.48417e-06 2.55C6.48417e-06 1.02 1.27484 1.9455e-07 2.86839 1.9455e-07ZM0.478068 25.857V8.721H5.04625V25.857H0.478068Z" transform="translate(191.75 10.7612)" fill="#333333"/>
<path d="M3.24209e-06 8.976C3.24209e-06 6.324 0.849896 4.233 2.65592 2.55C4.46194 0.816001 6.79914 7.78198e-07 9.72065 7.78198e-07C12.6422 7.78198e-07 14.9794 0.816001 16.7323 2.55C18.5383 4.233 19.4413 6.375 19.4413 8.976C19.4413 11.628 18.5383 13.719 16.7323 15.453C14.9263 17.136 12.589 17.952 9.72065 17.952C6.85226 17.952 4.46194 17.136 2.65592 15.453C0.849896 13.719 3.24209e-06 11.577 3.24209e-06 8.976ZM9.72065 13.872C12.589 13.872 14.6075 11.883 14.6075 8.976C14.6075 6.12 12.5359 4.08 9.72065 4.08C6.9585 4.08 4.88688 6.069 4.88688 8.976C4.83376 11.832 6.90538 13.872 9.72065 13.872Z" transform="translate(200.461 19.0742)" fill="#333333"/>
<path d="M26.5592 51C41.2274 51 53.1183 39.5833 53.1183 25.5C53.1183 11.4167 41.2274 0 26.5592 0C11.8909 0 0 11.4167 0 25.5C0 39.5833 11.8909 51 26.5592 51Z" fill="#FFDD05"/>
<path d="M21.2473 40.8C32.9819 40.8 42.4947 31.6666 42.4947 20.4C42.4947 9.13339 32.9819 0 21.2473 0C9.51275 0 0 9.13339 0 20.4C0 31.6666 9.51275 40.8 21.2473 40.8Z" transform="translate(5.31152 5.1001)" fill="#FFC000"/>
<path d="M21.2473 1.02C32.8271 1.02 42.1759 9.894 42.4947 20.91C42.4947 20.757 42.4947 20.553 42.4947 20.4C42.4947 9.129 32.9865 0 21.2473 0C9.50818 0 0 9.129 0 20.4C0 20.553 0 20.757 0 20.91C0.31871 9.894 9.66754 1.02 21.2473 1.02Z" transform="translate(5.31152 5.1001)" fill="#EBA700"/>
<path d="M24.1229 0.248389L1.01638 8.96939C1.01638 8.96939 -0.099103 9.32639 0.00713366 9.98939C0.11337 10.6524 0.963263 10.9584 0.963263 10.9584L6.80628 12.8454C6.80628 12.8454 8.55918 18.4044 8.93101 19.4244C9.30284 20.4954 9.56843 20.4954 9.56843 20.4954C9.88714 20.6484 10.2059 20.3934 10.2059 20.3934L13.9773 17.0784L19.8203 21.4134C21.4138 22.0764 21.9981 20.6994 21.9981 20.6994L26.0351 0.758389C26.0351 -0.567611 24.1229 0.248389 24.1229 0.248389Z" transform="translate(11.6787 16.6328)" fill="#EBA700"/>
<path d="M26.0351 0.758389L21.8919 20.6994C21.8919 20.6994 21.3076 22.0764 19.714 21.4134L10.259 14.4264L6.80628 12.8454L0.963263 10.9584C0.963263 10.9584 0.060252 10.6524 0.00713366 9.98939C-0.099103 9.32639 1.01638 8.96939 1.01638 8.96939L24.176 0.24839C24.1229 0.24839 26.0351 -0.567611 26.0351 0.758389Z" transform="translate(11.6787 15.6128)" fill="#FEDC00"/>
<path d="M2.76215 16.371C2.76215 16.371 2.49656 16.371 2.12473 15.3C1.75291 14.229 4.05261e-07 8.721 4.05261e-07 8.721L13.9701 0.203999C13.9701 0.203999 14.7669 -0.255001 14.7669 0.203999C14.7669 0.203999 14.9262 0.306 14.5013 0.663C14.0764 1.071 3.50581 10.149 3.50581 10.149" transform="translate(18.4321 19.7368)" fill="#EBA700"/>
<path d="M4.40882 2.703L0.63742 6.018C0.63742 6.018 0.31871 6.222 -4.05261e-07 6.12L0.743657 7.78198e-07" transform="translate(21.1411 30.0391)" fill="#FFC000"/>
</svg>
