<svg width="427" height="100" viewBox="0 0 427 100" fill="none" xmlns="http://www.w3.org/2000/svg">
<path d="M-3.08288e-06 -7.62939e-07H8.6877V9.3H19.5978V17.4H8.6877V29.6C8.6877 33.6 10.001 35.6 12.7285 35.6C14.4458 35.6 16.1631 34.9 17.9815 33.7L20.608 40.3C17.8805 42.5 14.5468 43.6 10.6071 43.6C3.13161 43.6 -3.08288e-06 39 -3.08288e-06 30.1V-7.62939e-07Z" transform="translate(130.312 28.7998)" fill="#F2F2F2"/>
<path d="M31.1141 31.1C27.7804 33.9 23.5376 35.3 18.1835 35.3C12.6275 35.3 8.28362 33.7 4.94997 30.4C1.61632 27.2 -3.08288e-06 22.9 -3.08288e-06 17.6C-3.08288e-06 12.6 1.61632 8.4 4.94997 5.1C8.1826 1.7 12.5264 -7.6294e-07 17.9815 -7.6294e-07C22.4264 -7.6294e-07 26.2651 1.5 29.3967 4.4C32.5283 7.3 34.0436 11 34.0436 15.6C34.0436 17.5 33.9426 19 33.5385 20.2H8.99076C9.6979 25.2 13.7387 28 19.1937 28C23.0325 28 26.1641 27 28.7906 24.9L31.1141 31.1ZM8.58667 14.5H25.2549C25.3559 10.3 22.3253 7.2 17.4764 7.2C12.5264 7.2 9.49585 9.7 8.58667 14.5Z" transform="translate(153.042 37.2997)" fill="#F2F2F2"/>
<path d="M3.08288e-06 0H8.68769V39.5C8.68769 43.2 9.69789 45 11.6173 45C12.7285 45 13.8397 44.6 15.153 43.7L16.9713 50.3C14.6479 52.2 11.6173 53.1 7.98055 53.1C2.62651 53.1 3.08288e-06 49.7 3.08288e-06 43.1V0Z" transform="translate(192.036 19.4997)" fill="#F2F2F2"/>
<path d="M31.1141 31.1C27.7804 33.9 23.5376 35.3 18.1835 35.3C12.6275 35.3 8.28361 33.7 4.94996 30.4C1.61631 27.2 3.08288e-06 22.9 3.08288e-06 17.6C3.08288e-06 12.6 1.61631 8.4 4.94996 5.1C8.18259 1.7 12.5264 -7.6294e-07 17.9815 -7.6294e-07C22.4264 -7.6294e-07 26.2651 1.5 29.3967 4.4C32.5283 7.3 34.0436 11 34.0436 15.6C34.0436 17.5 33.9426 19 33.5385 20.2H8.99075C9.69789 25.2 13.7387 28 19.1937 28C23.0325 28 26.1641 27 28.7906 24.9L31.1141 31.1ZM8.58668 14.5H25.2549C25.3559 10.3 22.3254 7.2 17.4764 7.2C12.5264 7.2 9.59687 9.7 8.58668 14.5Z" transform="translate(210.724 37.2997)" fill="#F2F2F2"/>
<path d="M0 49.3V0.800001H8.6877V4C10.9101 1.7 14.9509 1.52588e-06 19.1937 1.52588e-06C23.8406 1.52588e-06 27.5784 1.6 30.4069 4.8C33.2355 8 34.6497 12.1 34.6497 17.1C34.6497 22.3 33.0334 26.7 29.6998 30.1C26.3661 33.5 22.1233 35.3 16.7693 35.3C13.3346 35.3 10.7081 34.8 8.88974 33.7V49.5H0V49.3ZM8.58667 11.7V25.3C10.6071 26.6 12.9305 27.2 15.7591 27.2C21.6182 27.2 25.2549 23 25.2549 17.3C25.2549 11.8 22.0223 8 16.3652 8C13.4356 8 10.8091 9.2 8.58667 11.7Z" transform="translate(249.819 37.3994)" fill="#F2F2F2"/>
<path d="M2.62652 3.2C6.36425 0.999998 10.304 1.52588e-06 14.6479 1.52588e-06C24.3457 1.52588e-06 28.1845 4.7 28.1845 14V34.5H20.608V30.6C18.5876 33.5 15.153 34.9 10.6071 34.9C4.24283 34.9 6.16575e-06 30.9 6.16575e-06 24.6C6.16575e-06 17.5 5.15199 13.7 12.3244 13.7C15.456 13.7 17.9815 14.4 20.0019 15.9C20.2039 10 18.4866 7.2 13.6377 7.2C11.1122 7.2 8.08156 7.9 4.74791 9.5L2.62652 3.2ZM20.1029 24.5V21.1C18.6886 20 16.6683 19.5 14.1428 19.5C11.0112 19.5 8.6877 21 8.6877 23.7C8.6877 26.2 10.7081 27.7 13.5366 27.7C16.4662 27.6 18.5876 26.5 20.1029 24.5Z" transform="translate(287.802 37.3994)" fill="#F2F2F2"/>
<path d="M37.0742 7.6294e-07L23.7396 33.6C21.3152 39.4 19.0927 43.4 17.2744 45.4C15.355 47.5 13.2336 48.5 10.6071 48.5C8.08159 48.5 5.6571 47.6 3.33365 45.9L6.16219 39.4C7.47544 40.2 8.68768 40.6 9.69788 40.6C11.7183 40.6 13.4356 38.9 14.9509 35.4L15.6581 33.6L1.23315e-05 7.6294e-07H10.405L18.2845 18.4C18.5876 19.1 19.0927 20.8 19.9009 23.3C20.3049 21.1 20.709 19.5 21.1131 18.4L27.1743 0.0999992H37.0742V7.6294e-07Z" transform="translate(318.714 38.1997)" fill="#F2F2F2"/>
<path d="M6.06119 -1.52588e-06C9.1928 -1.52588e-06 11.6173 2.8 11.6173 5.5C11.6173 8.7 9.1928 11.5 6.06119 11.5C2.42448 11.5 6.16575e-06 8.7 6.16575e-06 5.5C6.16575e-06 2.8 2.42448 -1.52588e-06 6.06119 -1.52588e-06Z" transform="translate(354.98 60.5995)" fill="#F2F2F2"/>
<path d="M5.45507 3.8147e-07C8.08158 3.8147e-07 10.405 2 10.405 5C10.405 8.3 8.08158 10.4 5.45507 10.4C2.32346 10.4 1.23315e-05 8.3 1.23315e-05 5C1.23315e-05 2 2.42448 3.8147e-07 5.45507 3.8147e-07ZM0.909183 50.7V17.1H9.59688V50.7H0.909183Z" transform="translate(373.265 21.0997)" fill="#F2F2F2"/>
<path d="M6.16575e-06 17.6C6.16575e-06 12.4 1.61632 8.3 5.05099 5C8.48566 1.6 12.9305 1.52588e-06 18.4866 1.52588e-06C24.0427 1.52588e-06 28.4876 1.6 31.8212 5C35.2559 8.3 36.9732 12.5 36.9732 17.6C36.9732 22.8 35.2559 26.9 31.8212 30.3C28.3865 33.6 23.9417 35.2 18.4866 35.2C13.0315 35.2 8.48566 33.6 5.05099 30.3C1.61632 26.9 6.16575e-06 22.7 6.16575e-06 17.6ZM18.4866 27.2C23.9417 27.2 27.7804 23.3 27.7804 17.6C27.7804 12 23.8406 8 18.4866 8C13.2336 8 9.2938 11.9 9.2938 17.6C9.19278 23.2 13.1326 27.2 18.4866 27.2Z" transform="translate(389.832 37.3994)" fill="#F2F2F2"/>
<path d="M50.5098 100C78.4056 100 101.02 77.6142 101.02 50C101.02 22.3858 78.4056 0 50.5098 0C22.614 0 0 22.3858 0 50C0 77.6142 22.614 100 50.5098 100Z" transform="translate(0.805664)" fill="#FFDD05"/>
<path d="M40.4079 80C62.7245 80 80.8157 62.0914 80.8157 40C80.8157 17.9086 62.7245 0 40.4079 0C18.0912 0 0 17.9086 0 40C0 62.0914 18.0912 80 40.4079 80Z" transform="translate(10.9077 10.0002)" fill="#FFC000"/>
<path d="M40.4079 2C62.4302 2 80.2096 19.4 80.8157 41C80.8157 40.7 80.8157 40.3 80.8157 40C80.8157 17.9 62.7332 0 40.4079 0C18.0825 0 0 17.9 0 40C0 40.3 0 40.7 0 41C0.606118 19.4 18.3856 2 40.4079 2Z" transform="translate(10.9077 10.0002)" fill="#EBA700"/>
<path d="M45.8765 0.487038L1.93294 17.587C1.93294 17.587 -0.188473 18.287 0.0135667 19.587C0.215606 20.887 1.83192 21.487 1.83192 21.487L12.9441 25.187C12.9441 25.187 16.2777 36.087 16.9849 38.087C17.692 40.187 18.1971 40.187 18.1971 40.187C18.8032 40.487 19.4093 39.987 19.4093 39.987L26.5817 33.487L37.6939 41.987C40.7245 43.287 41.8357 40.587 41.8357 40.587L49.5132 1.48704C49.5132 -1.11296 45.8765 0.487038 45.8765 0.487038Z" transform="translate(23.0161 32.6128)" fill="#EBA700"/>
<path d="M49.5132 1.48704L41.6337 40.587C41.6337 40.587 40.5225 43.287 37.4919 41.987L19.5104 28.287L12.9441 25.187L1.83192 21.487C1.83192 21.487 0.114586 20.887 0.0135667 19.587C-0.188473 18.287 1.93294 17.587 1.93294 17.587L45.9775 0.48704C45.8765 0.48704 49.5132 -1.11296 49.5132 1.48704Z" transform="translate(23.0161 30.6128)" fill="#FEDC00"/>
<path d="M5.25303 32.1C5.25303 32.1 4.74793 32.1 4.04079 30C3.33365 27.9 7.70719e-07 17.1 7.70719e-07 17.1L26.5682 0.399999C26.5682 0.399999 28.0835 -0.500002 28.0835 0.399999C28.0835 0.399999 28.3865 0.6 27.5784 1.3C26.7702 2.1 6.6673 19.9 6.6673 19.9" transform="translate(35.8594 38.7)" fill="#EBA700"/>
<path d="M8.38463 5.3L1.21224 11.8C1.21224 11.8 0.606117 12.2 -7.70719e-07 12L1.41428 1.52588e-06" transform="translate(41.0117 58.8999)" fill="#FFC000"/>
</svg>
