<svg width="200" height="200" viewBox="0 0 200 200" fill="none" xmlns="http://www.w3.org/2000/svg">
<path d="M6.66756 1.14453C5.94139 0.417577 4.93358 2.76565e-06 3.90624 2.76565e-06C2.8789 2.76565e-06 1.87109 0.417577 1.14453 1.14453C0.417967 1.87148 -6.43729e-07 2.8789 -6.43729e-07 3.90625C-6.43729e-07 4.93359 0.417577 5.9414 1.14453 6.66757C1.87109 7.39413 2.8789 7.81249 3.90624 7.81249C4.93358 7.81249 5.94139 7.39452 6.66756 6.66757C7.39413 5.9414 7.81248 4.93359 7.81248 3.90625C7.81248 2.8789 7.39452 1.87109 6.66756 1.14453Z" transform="translate(26.561 176.562)" fill="#333333"/>
<path d="M6.66795 1.14453C5.94139 0.417579 4.93749 -1.71661e-06 3.90625 -1.71661e-06C2.8789 -1.71661e-06 1.87109 0.417579 1.14453 1.14453C0.41836 1.87109 3.91006e-06 2.8789 3.91006e-06 3.90624C3.91006e-06 4.93358 0.417969 5.94139 1.14453 6.66756C1.87109 7.39413 2.8789 7.81248 3.90625 7.81248C4.93749 7.81248 5.94139 7.39452 6.66795 6.66756C7.39803 5.94139 7.81601 4.93358 7.81601 3.90624C7.81601 2.8789 7.39803 1.87109 6.66795 1.14453Z" transform="translate(176.737 70.3154)" fill="#333333"/>
<path d="M198.85 1.14414C198.118 0.411718 197.124 0 196.088 0L99.9963 0.00507812C97.8393 0.00507812 96.0904 1.75429 96.0904 3.91132V15.082L59.0636 25.0035C56.9796 25.5621 55.7429 27.7039 56.3015 29.7874L75.4917 101.405L58.8905 118.006C56.7776 114.921 53.23 112.892 49.2171 112.892H11.7183C5.25663 112.892 0 118.149 0 124.611V188.281C0 194.743 5.25663 200 11.7183 200H49.2175C54.7069 200 59.3249 196.204 60.5905 191.101L65.235 195.152C68.8206 198.278 73.4143 200 78.1717 200H196.088C198.245 200 199.995 198.251 199.995 196.094V3.90624C199.994 2.87031 199.583 1.87656 198.85 1.14414ZM53.1229 188.281C53.1229 190.435 51.3706 192.188 49.2167 192.188H11.7179C9.56404 192.188 7.8117 190.435 7.8117 188.281V124.611C7.8117 122.457 9.56404 120.705 11.7179 120.705H26.5613V165.703C26.5613 167.86 28.3105 169.609 30.4675 169.609C32.6245 169.609 34.3738 167.86 34.3738 165.703V120.705H49.2171C51.371 120.705 53.1233 122.457 53.1233 124.611V188.281H53.1229ZM64.8585 31.5386L96.0904 23.1699V37.6445L93.4725 38.346C92.4713 38.6144 91.6186 39.2687 91.1006 40.1659C90.5826 41.0632 90.442 42.1292 90.7104 43.13C92.2115 48.7319 88.8752 54.5104 83.2733 56.0116C82.2713 56.2804 81.417 56.9358 80.8995 57.835C80.3819 58.7339 80.2424 59.8018 80.5131 60.8034L95.7393 117.185H87.8994L83.8592 101.379C83.7307 100.876 83.5057 100.412 83.2045 100.009L64.8585 31.5386ZM96.0904 55.5581V88.5194L88.9658 62.1386C91.942 60.6018 94.3775 58.3026 96.0904 55.5581ZM152.209 192.187H78.1709C75.3018 192.187 72.5311 191.149 70.3686 189.263L60.9354 181.036V127.01L77.9893 109.956L81.0823 122.058C81.5245 123.787 83.0819 124.997 84.8666 124.997L161.665 125.001C164.681 125.001 167.134 127.454 167.134 130.47C167.134 133.486 164.681 135.939 161.665 135.939H122.313C120.156 135.939 118.407 137.688 118.407 139.845C118.407 142.002 120.156 143.751 122.313 143.751H173.891C176.907 143.751 179.36 146.204 179.36 149.22C179.36 152.236 176.907 154.689 173.891 154.689H122.313C120.156 154.689 118.407 156.438 118.407 158.595C118.407 160.752 120.156 162.501 122.313 162.501H165.533C168.549 162.501 171.002 164.954 171.002 167.97C171.002 170.986 168.549 173.439 165.533 173.439H122.313C120.156 173.439 118.407 175.188 118.407 177.345C118.407 179.502 120.156 181.251 122.313 181.251H152.209C155.225 181.251 157.678 183.704 157.678 186.72C157.677 189.734 155.224 192.187 152.209 192.187ZM192.182 192.187H192.182H164.307C165.065 190.518 165.49 188.668 165.49 186.718C165.49 184.769 165.065 182.919 164.307 181.25H165.533C172.856 181.25 178.814 175.292 178.814 167.969C178.814 165.833 178.304 163.815 177.404 162.025C183.028 160.48 187.172 155.326 187.172 149.219C187.172 146.257 186.196 143.518 184.55 141.307V91.7994C184.55 89.6424 182.801 87.8932 180.644 87.8932C178.487 87.8932 176.738 89.6424 176.738 91.7994V136.249C175.82 136.048 174.868 135.939 173.891 135.939H173.763C174.52 134.27 174.945 132.419 174.945 130.47C174.945 123.147 168.988 117.189 161.665 117.189H155.385C162.053 114.33 166.736 107.703 166.736 99.9998C166.736 89.6916 158.35 81.3053 148.042 81.3053C137.734 81.3053 129.347 89.6916 129.347 99.9998C129.347 107.703 134.031 114.33 140.698 117.189H119.345V42.9152C126.323 41.3945 131.829 35.8886 133.35 28.9101H162.733C164.253 35.8886 169.759 41.3945 176.738 42.9152V55.0597C176.738 57.2167 178.487 58.9659 180.644 58.9659C182.801 58.9659 184.55 57.2167 184.55 55.0597V39.4277C184.55 37.2706 182.801 35.5214 180.644 35.5214C174.844 35.5214 170.127 30.8031 170.127 25.0039C170.127 22.8468 168.377 21.0976 166.22 21.0976H129.863C127.706 21.0976 125.956 22.8468 125.956 25.0039C125.956 30.8035 121.238 35.5214 115.439 35.5214C113.282 35.5214 111.533 37.2706 111.533 39.4277V117.189H103.903V7.81678L192.182 7.81249V192.187ZM148.042 110.882C142.042 110.882 137.161 106 137.161 100C137.161 94.0002 142.042 89.1182 148.042 89.1182C154.042 89.1182 158.924 93.9998 158.924 99.9998C158.924 106 154.043 110.882 148.042 110.882Z" fill="#333333"/>
</svg>
