<svg width="26" height="46" viewBox="0 0 26 46" fill="none" xmlns="http://www.w3.org/2000/svg">
<path d="M12.5 0C5.60734 0 4.35108e-08 5.85813 4.35108e-08 13.0581V26.136C4.35108e-08 33.3358 5.60734 39.1934 12.5 39.1934C19.3927 39.1934 25 33.336 25 26.136V13.0581C25 5.85813 19.3925 0 12.5 0ZM23.6111 26.136C23.6111 32.5356 18.6267 37.7418 12.5 37.7418C6.37333 37.7418 1.38887 32.5356 1.38887 26.136V13.0581C1.38887 6.65853 6.37333 1.45159 12.5 1.45159C18.6267 1.45159 23.6111 6.65834 23.6111 13.0581V26.136Z" transform="translate(0.805664)" fill="#F2F2F2"/>
<path d="M0.694524 -5.40023e-08C0.310994 -5.40023e-08 -4.35108e-07 0.324665 -4.35108e-07 0.725887V7.29854C-4.35108e-07 7.69977 0.310994 8.02443 0.694524 8.02443C1.07805 8.02443 1.38905 7.69977 1.38905 7.29854V0.725887C1.38887 0.324665 1.07805 -5.40023e-08 0.694524 -5.40023e-08Z" transform="translate(12.6113 4.35461)" fill="#F2F2F2"/>
<path d="M16.2128 0.245145C16.3482 0.109755 16.3482 -0.109755 16.2128 -0.245145L14.0065 -2.45145C13.8711 -2.58684 13.6516 -2.58684 13.5162 -2.45145C13.3809 -2.31606 13.3809 -2.09655 13.5162 -1.96116L15.4774 0L13.5162 1.96116C13.3809 2.09655 13.3809 2.31606 13.5162 2.45145C13.6516 2.58684 13.8711 2.58684 14.0065 2.45145L16.2128 0.245145ZM0 0.346687H15.9677V-0.346687H0V0.346687Z" transform="translate(13.3057 29.0322) rotate(90)" fill="#F2F2F2"/>
</svg>
