<svg width="200" height="200" viewBox="0 0 200 200" fill="none" xmlns="http://www.w3.org/2000/svg">
<path d="M177.691 168.125L174.405 166.808C190.93 148.426 200 124.815 200 100C200 79.6988 193.863 60.1652 182.68 43.7445C182.545 43.4777 182.377 43.2375 182.181 43.0277C177.282 35.9672 171.451 29.4914 164.759 23.7988C163.43 22.6687 161.438 22.8297 160.307 24.1582C159.177 25.4867 159.338 27.4801 160.666 28.6098C166.035 33.1766 170.814 38.2812 174.959 43.8059C168.275 46.4184 160.251 48.6309 151.294 50.3789C148.821 43.0117 145.782 36.143 142.21 29.9457C137.395 21.5922 131.856 14.8656 125.82 9.91836C135.214 12.6043 144.164 16.766 152.377 22.3141C153.822 23.2895 155.785 22.9102 156.761 21.4648C157.738 20.0199 157.357 18.057 155.912 17.0805C139.373 5.90625 120.039 0 100 0C73.2887 0 48.177 10.4016 29.2898 29.2898C10.4016 48.177 0 73.2895 0 100C0 124.847 9.08281 148.461 25.6344 166.85L22.3898 168.12C21.1949 168.552 11.0344 172.605 11.0344 185.524V196.839C11.0344 198.584 12.4477 200 14.1922 200H32.3578H35.1855H38.5539H54.7109H60.6742C60.8266 200 60.9754 199.986 61.1219 199.964C61.2687 199.986 61.4172 200 61.5695 200H74.4187C76.1633 200 77.5766 198.587 77.5766 196.842C77.5766 195.098 76.1629 193.684 74.4187 193.684H64.7273V182.686C64.7273 171.083 73.8414 167.746 74.2094 167.616C74.2582 167.6 74.3066 167.582 74.3551 167.563L89.7332 161.54C89.7664 161.576 89.7977 161.614 89.8328 161.648L98.0055 169.608C98.5957 170.182 99.3867 170.504 100.209 170.504C100.225 170.504 100.242 170.504 100.259 170.504C101.099 170.491 101.9 170.143 102.482 169.537L110.33 161.395L125.687 167.554C125.743 167.576 125.78 167.59 125.837 167.609C126.225 167.745 135.34 171.084 135.34 182.686V193.684H112.242H87.8238H84.2883C82.5437 193.684 81.1305 195.098 81.1305 196.842C81.1305 198.587 82.5441 200 84.2883 200H87.8238H112.242H138.498H138.498H138.499H142.528H145.355H148.724H164.88H185.875C187.619 200 189.032 198.564 189.032 196.82V185.524C189.033 172.654 178.949 168.583 177.691 168.125ZM168.136 164.294L165.023 163.045V161.248C168.463 159.231 171.107 155.999 172.364 152.145C176.958 151.782 180.587 147.935 180.587 143.25C180.587 140.463 179.302 137.972 177.296 136.332V130.72C177.296 119.899 169.176 110.945 158.711 109.616C158.83 107.475 158.912 105.318 158.952 103.158H193.626C192.867 126.016 183.888 147.607 168.136 164.294ZM156.735 157.185H153.855C148.275 157.185 143.736 152.645 143.736 147.066V138.711C147.849 138.264 155.136 136.826 160.749 132.138C162.007 134.295 163.952 136.627 166.855 137.989V147.066C166.854 152.645 162.315 157.185 156.735 157.185ZM158.708 163.378V165.129L155.189 168.779L151.883 165.559V163.377C152.53 163.455 153.188 163.5 153.855 163.5H156.736C157.404 163.5 158.06 163.455 158.708 163.378ZM140.588 132.6C140.584 132.6 140.581 132.6 140.577 132.6C140.469 132.6 140.361 132.606 140.255 132.616C140.221 132.62 140.188 132.627 140.154 132.632C140.083 132.641 140.012 132.65 139.942 132.664C139.895 132.673 139.849 132.688 139.802 132.7C139.748 132.714 139.693 132.725 139.64 132.742C139.606 132.752 139.573 132.767 139.539 132.779V130.72C139.539 122.468 146.253 115.755 154.505 115.755H156.016C164.268 115.755 170.98 122.468 170.98 130.72V132.753C170.921 132.734 170.861 132.719 170.8 132.704C170.771 132.695 170.742 132.686 170.712 132.679C166.31 131.677 164.87 125.802 164.86 125.757C164.586 124.547 163.629 123.61 162.413 123.361C161.196 123.112 159.948 123.599 159.221 124.604C153.503 132.509 140.755 132.6 140.588 132.6ZM173.17 145.378V141.122C173.835 141.597 174.271 142.373 174.271 143.25C174.271 144.128 173.835 144.903 173.17 145.378ZM178.665 49.1203C187.812 63.2516 193.05 79.7023 193.625 96.8418H158.95C158.694 82.6273 156.708 68.9176 153.166 56.432C162.875 54.5035 171.532 52.0391 178.665 49.1203ZM152.634 96.8426H120.313C120.31 96.8422 120.307 96.8426 120.304 96.8426C115.995 92.0801 109.939 88.9336 103.158 88.4102V61.2539C118.654 61.0996 133.609 59.8109 146.932 57.5715C150.418 69.6465 152.375 82.9801 152.634 96.8426ZM124.777 129.818C124.777 131.676 123.523 133.242 121.817 133.723V125.912C123.523 126.395 124.777 127.961 124.777 129.818ZM103.158 6.49102C115.725 7.8332 127.548 17.1574 136.738 33.0996C139.963 38.6937 142.732 44.8742 145.015 51.5039C132.283 53.5887 117.994 54.7887 103.157 54.9375V6.49102H103.158ZM101.155 94.6406C111.912 94.6406 120.662 103.392 120.662 114.149V118.008C120.641 117.991 120.619 117.977 120.598 117.96C120.552 117.924 120.505 117.889 120.457 117.855C120.42 117.83 120.382 117.806 120.344 117.782C120.296 117.752 120.25 117.722 120.2 117.695C120.155 117.669 120.109 117.647 120.063 117.624C120.019 117.602 119.975 117.58 119.93 117.559C119.874 117.535 119.817 117.514 119.76 117.493C119.721 117.478 119.682 117.463 119.642 117.45C119.578 117.429 119.513 117.412 119.447 117.395C119.418 117.387 119.39 117.377 119.36 117.37C113.361 116.006 111.461 108.184 111.445 108.116C111.171 106.906 110.214 105.969 108.998 105.72C107.782 105.47 106.534 105.958 105.806 106.963C98.4113 117.187 82.0758 117.291 81.8602 117.291C81.8598 117.291 81.8594 117.291 81.8594 117.291C81.8551 117.291 81.852 117.291 81.8481 117.291C81.7395 117.291 81.6316 117.297 81.5258 117.307C81.4926 117.311 81.4605 117.318 81.4273 117.323C81.3559 117.332 81.2832 117.341 81.2129 117.355C81.168 117.364 81.1242 117.379 81.0793 117.389C81.023 117.404 80.9656 117.416 80.9109 117.433C80.8598 117.449 80.8105 117.47 80.7605 117.488C80.7148 117.505 80.6672 117.52 80.6219 117.538C80.5641 117.563 80.509 117.592 80.4539 117.619C80.418 117.636 80.3816 117.652 80.3465 117.671C80.2895 117.701 80.2363 117.736 80.1816 117.77C80.1504 117.79 80.1176 117.807 80.0863 117.828C80.0355 117.863 79.9875 117.901 79.9383 117.938C79.9066 117.962 79.8738 117.984 79.843 118.009C79.8141 118.033 79.7871 118.06 79.7586 118.085V114.149C79.7586 103.392 88.5094 94.6406 99.266 94.6406H101.155ZM47.366 96.8422C47.625 82.9773 49.5824 69.641 53.0695 57.5648C66.4117 59.8074 81.382 61.0988 96.8422 61.2543V88.4426C90.2223 89.0625 84.3211 92.1883 80.1004 96.8633C79.9855 96.8508 79.8688 96.8426 79.7504 96.8426H47.366V96.8422ZM78.6902 125.88V133.757C76.9195 133.319 75.602 131.722 75.602 129.818C75.6016 127.915 76.9195 126.318 78.6902 125.88ZM96.8422 6.49102V54.9375C82.0406 54.7875 67.7406 53.5828 54.9883 51.4941C57.2707 44.8684 60.0387 38.6918 63.2621 33.0996C72.452 17.1574 84.2754 7.8332 96.8422 6.49102ZM74.1457 9.94609C68.123 14.8914 62.5961 21.6074 57.7898 29.9453C54.2184 36.141 51.1805 43.0066 48.7082 50.3719C39.7625 48.6262 31.752 46.4188 25.0801 43.8164C37.1746 27.7285 54.323 15.6461 74.1457 9.94609ZM21.3633 49.1352C28.4789 52.043 37.1371 54.4981 46.8367 56.4246C43.2926 68.9117 41.3062 82.6246 41.0492 96.8422H6.375C6.95898 79.3008 12.3867 62.966 21.3633 49.1352ZM41.7121 163.378C42.3594 163.456 43.0168 163.5 43.6848 163.5H46.5652C47.2324 163.5 47.8898 163.456 48.5367 163.378V165.128L45.0187 168.779L41.7121 165.559V163.378ZM46.5652 157.185H43.6848C38.1047 157.185 33.5652 152.645 33.5652 147.066V138.714C37.6781 138.269 44.9617 136.829 50.5789 132.138C51.8367 134.295 53.782 136.628 56.684 137.99V147.066C56.6836 152.645 52.1445 157.185 46.5652 157.185ZM54.6906 125.757C54.4168 124.547 53.4594 123.609 52.2434 123.361C51.0273 123.112 49.7789 123.598 49.0523 124.604C43.3297 132.514 30.5719 132.6 30.418 132.6C30.4141 132.6 30.4109 132.6 30.4074 132.6C30.2988 132.6 30.191 132.606 30.0852 132.616C30.052 132.62 30.0199 132.627 29.9867 132.632C29.9152 132.641 29.8426 132.65 29.7723 132.664C29.7273 132.673 29.6836 132.688 29.6387 132.698C29.5824 132.713 29.5254 132.725 29.4703 132.742C29.4363 132.752 29.4043 132.767 29.3707 132.779V130.72C29.3707 122.468 36.084 115.754 44.3363 115.754H45.8469C54.0988 115.754 60.8113 122.468 60.8113 130.72V132.753H60.8105C60.75 132.733 60.6871 132.718 60.6254 132.702C60.5977 132.695 60.5707 132.686 60.5426 132.679C56.141 131.678 54.7012 125.801 54.6906 125.757ZM6.37461 103.158H41.0484C41.0879 105.333 41.1719 107.505 41.2918 109.66C30.9945 111.141 23.0539 120.019 23.0539 130.72V136.308C21.0285 137.947 19.7297 140.448 19.7297 143.25C19.7297 147.97 23.4145 151.837 28.0578 152.15C29.3141 156.002 31.957 159.231 35.3961 161.248V163.027L31.9465 164.378C16.1414 147.678 7.13398 126.065 6.37461 103.158ZM27.2488 141.052V145.447C26.5262 144.982 26.0453 144.171 26.0453 143.25C26.0453 142.329 26.5262 141.518 27.2488 141.052ZM58.4109 182.687V193.684H54.7102H38.5535H35.1852H32.3578H17.3504V185.524C17.3504 176.72 24.2332 174.168 24.5008 174.073C24.5496 174.057 24.5984 174.039 24.6465 174.02L36.557 169.355L42.8859 175.52C43.4758 176.094 44.2664 176.415 45.0891 176.415C45.1055 176.415 45.1223 176.415 45.1391 176.415C45.9793 176.402 46.7801 176.054 47.3625 175.448L53.3406 169.245L60.7301 172.207C59.3289 175.075 58.4109 178.548 58.4109 182.687ZM88.8789 155.092L72.118 161.656C69.9836 162.39 67.0297 164.084 64.4094 166.878L54.852 163.045V161.249C58.293 159.231 60.9367 156 62.193 152.145C66.7875 151.782 70.4168 147.935 70.4168 143.25C70.4168 140.463 69.132 137.972 67.1262 136.332V130.72C67.1262 119.58 58.5207 110.418 47.6094 109.517C47.4891 107.411 47.4059 105.286 47.3656 103.157H75.9047C74.3281 106.495 73.4422 110.219 73.4422 114.148V121.517C70.9199 123.412 69.2852 126.427 69.2852 129.818C69.2852 135.486 73.8543 140.105 79.5027 140.192C80.9848 145.197 84.3984 149.379 88.8781 151.871V155.092H88.8789ZM62.9996 145.378V141.121C63.6648 141.596 64.1012 142.372 64.1012 143.25C64.1012 144.128 63.6648 144.904 62.9996 145.378ZM105.313 157.296C105.313 157.3 105.313 157.305 105.313 157.308V157.499L100.139 162.868L95.1945 158.053V154.079C96.2551 154.256 97.3426 154.353 98.4531 154.353H102.055C103.165 154.353 104.252 154.256 105.313 154.08V157.296ZM102.055 148.038H98.4531C91.0383 148.038 85.0059 142.005 85.0059 134.591V123.441C90.0457 122.977 100.011 121.225 107.291 114.691C108.827 117.598 111.402 120.973 115.502 122.724V134.59C115.501 142.005 109.47 148.038 102.055 148.038ZM135.677 166.9C133.057 164.099 130.1 162.399 127.961 161.661L111.628 155.11V151.871C116.109 149.379 119.522 145.196 121.004 140.189C126.592 140.034 131.092 135.443 131.092 129.819C131.092 126.447 129.475 123.447 126.977 121.55V114.149C126.977 110.22 126.092 106.495 124.515 103.158H152.633C152.592 105.295 152.509 107.428 152.387 109.545C141.642 110.611 133.223 119.7 133.223 130.72V136.309C131.198 137.947 129.899 140.449 129.899 143.25C129.899 147.971 133.584 151.838 138.227 152.15C139.484 156.003 142.127 159.232 145.566 161.249V163.027L135.677 166.9ZM137.42 141.052V145.447C136.697 144.982 136.216 144.171 136.216 143.25C136.216 142.329 136.697 141.518 137.42 141.052ZM182.718 193.684H164.881H148.725H145.356H142.529H141.657V182.686C141.657 178.564 140.747 175.103 139.355 172.243L146.728 169.355L153.056 175.519C153.646 176.094 154.437 176.415 155.26 176.415C155.276 176.415 155.293 176.415 155.309 176.415C156.15 176.402 156.95 176.054 157.533 175.448L163.512 169.245L175.397 174.01C175.452 174.033 175.483 174.045 175.541 174.064C175.834 174.168 182.718 176.72 182.718 185.524V193.684H182.718Z" fill="#333333"/>
</svg>
