<svg width="64" height="70" viewBox="0 0 64 70" fill="none" xmlns="http://www.w3.org/2000/svg">
<path d="M62.5016 11.5301L62.4085 11.5139C51.7806 9.65037 41.7285 5.84439 32.5314 0.201866C32.0919 -0.0677436 31.5379 -0.0673334 31.0989 0.20337C21.9659 5.834 11.9768 9.62836 1.40902 11.4814L1.13108 11.5301C0.477012 11.6448 -2.08616e-08 12.2128 -2.08616e-08 12.8768V30.7728C-2.08616e-08 39.8878 3.14604 48.8194 8.8587 55.9223C14.5712 63.0252 22.6203 68.0135 31.5231 69.9683C31.6199 69.9893 31.7181 70 31.8165 70C31.9151 70 32.0137 69.9893 32.1105 69.9681C41.0142 68.0088 49.0635 63.0165 54.7753 55.911C60.4873 48.8054 63.6331 39.8714 63.6331 30.7546V12.8768C63.6331 12.2125 63.1558 11.6446 62.5016 11.5301ZM60.8988 30.7546C60.8988 48.0833 48.6868 63.3753 31.8163 67.2317C14.9461 63.3835 2.73438 48.0994 2.73438 30.7728V14.0207C13.0543 12.1067 22.8315 8.39092 31.8184 2.96742C40.8135 8.37082 50.5874 12.0849 60.8988 14.0187V30.7546Z" fill="#333333"/>
<path d="M1.36857 2.74778C1.59771 2.74778 1.82986 2.69009 2.04328 2.56882L2.05722 2.56103C2.05777 2.56061 2.06884 2.55446 2.06939 2.55419C2.72728 2.18464 2.95615 1.35462 2.58714 0.696453C2.21786 0.0381516 1.37991 -0.193313 0.721613 0.175007L0.691535 0.19196C0.0351471 0.565203 -0.194266 1.39987 0.178976 2.05626C0.430949 2.49923 0.892921 2.74778 1.36857 2.74778Z" transform="translate(30.417 7.18652)" fill="#333333"/>
<path d="M19.5771 0.133402C13.6775 2.94721 7.44735 5.12145 1.05984 6.59528C0.439415 6.73843 1.91927e-07 7.29077 1.91927e-07 7.92747V20.7402C1.91927e-07 22.2213 0.0999414 23.7167 0.29668 25.1848C0.388555 25.8715 0.975489 26.3704 1.64992 26.3704C1.71035 26.3704 1.7716 26.3665 1.83326 26.3581C2.58166 26.2578 3.10694 25.5698 3.00658 24.8214C2.82584 23.4734 2.73424 22.1002 2.73424 20.7402V9.00851C8.9447 7.49831 15.002 5.34499 20.7541 2.60145C21.4357 2.27647 21.7246 1.4604 21.3997 0.778851C21.0744 0.0973078 20.2582 -0.191442 19.5771 0.133402Z" transform="translate(6.18896 10.0146)" fill="#333333"/>
<path d="M20.4605 4.58956e-07C19.7055 4.58956e-07 19.0933 0.61209 19.0933 1.36719V14.1799C19.0933 26.3351 11.9116 37.4875 0.796913 42.5922C0.110858 42.9073 -0.19006 43.719 0.125077 44.4052C0.355448 44.9065 0.85078 45.2021 1.3684 45.2021C1.55939 45.2021 1.7534 45.1619 1.9381 45.077C7.7987 42.3854 12.7733 38.0766 16.3248 32.6163C19.9248 27.0811 21.8277 20.7059 21.8277 14.1799V1.36719C21.8277 0.612227 21.2155 4.58956e-07 20.4605 4.58956e-07Z" transform="translate(35.6165 16.5748)" fill="#333333"/>
<path d="M1.06889 0.0461167L1.0168 0.0599271C0.286998 0.253658 -0.147631 1.00219 0.0461001 1.732C0.208522 2.3445 0.761549 2.74891 1.36653 2.74891C1.4826 2.74891 1.60073 2.73415 1.71817 2.70284L1.77026 2.68903C2.50007 2.4953 2.93469 1.74676 2.74096 1.01696C2.54723 0.286744 1.79829 -0.147614 1.06889 0.0461167Z" transform="translate(30.449 60.885)" fill="#333333"/>
<path d="M37.212 19.127C38.1017 17.6808 37.8785 15.8386 36.6688 14.6471L35.2483 13.2478C35.0626 13.065 34.9669 12.8112 34.9853 12.5516L35.1277 10.5526C35.2488 8.85118 34.1928 7.31897 32.5597 6.82651L30.6784 6.2594C30.4276 6.18379 30.2238 6.00251 30.1195 5.76202L29.3322 3.94543C28.6598 2.3949 26.9677 1.50623 25.3103 1.83121L23.4014 2.20582C23.1434 2.25641 22.8773 2.19078 22.6722 2.02522L21.153 0.798575C19.834 -0.266055 17.9198 -0.266328 16.601 0.798575L15.0815 2.02535C14.8766 2.19092 14.6104 2.25641 14.3523 2.20582L12.4434 1.83135C10.7853 1.50582 9.09367 2.3949 8.42169 3.94516L7.63378 5.76229C7.52946 6.00251 7.32589 6.18379 7.07501 6.2594L5.19417 6.82651C3.56106 7.31884 2.50504 8.85104 2.62618 10.5526L2.7685 12.5515C2.78696 12.8112 2.69112 13.065 2.50573 13.2476L1.08508 14.6471C-0.124606 15.8387 -0.348005 17.6809 0.541898 19.127L1.59231 20.8339C1.72862 21.0553 1.76102 21.3243 1.68159 21.5716L1.06676 23.4831C0.546274 25.1021 1.20417 26.8393 2.66637 27.7074L4.36893 28.7183C4.59356 28.8518 4.74751 29.0759 4.7914 29.3332L5.12636 31.2986C5.41401 32.9858 6.80868 34.2235 8.51808 34.3084L10.4682 34.4053C10.7307 34.4184 10.9726 34.5459 11.1317 34.7552L12.3206 36.3194C13.0206 37.2404 14.1088 37.7463 15.2174 37.7463C15.7322 37.7463 16.2514 37.6372 16.738 37.4096L18.5009 36.5864C18.7399 36.4748 19.0139 36.475 19.2528 36.5864L21.0156 37.4096C22.5506 38.1263 24.4085 37.6677 25.4332 36.319L26.6217 34.755C26.7809 34.5457 27.0227 34.4182 27.2852 34.4052L29.2358 34.3082C30.9452 34.2233 32.3398 32.9856 32.6275 31.2985L32.9625 29.3332C33.0063 29.0757 33.1603 28.8517 33.3849 28.7183L35.0875 27.7074C36.5497 26.8393 37.2076 25.1021 36.687 23.483L36.0724 21.5719C35.9928 21.3243 36.0252 21.0554 36.1614 20.834L37.212 19.127ZM34.8832 17.6942L33.8325 19.4014C33.2775 20.3038 33.145 21.4001 33.4693 22.409L34.0838 24.3202C34.2117 24.7174 34.0502 25.1436 33.6914 25.3566L31.9889 26.3675C31.0734 26.9109 30.446 27.8245 30.267 28.8739L29.9321 30.8393C29.8614 31.253 29.5193 31.5566 29.1001 31.5774L27.1496 31.6743C26.0791 31.7277 25.0931 32.2476 24.4447 33.1009L23.2562 34.6649C23.0048 34.9957 22.5493 35.1083 22.1727 34.9325L20.41 34.1093C19.4356 33.6543 18.3184 33.6543 17.344 34.1093L15.5811 34.9325C15.2043 35.1082 14.7489 34.9955 14.4976 34.6649L13.3086 33.1005C12.6601 32.2473 11.6744 31.7275 10.604 31.6743L8.65384 31.5774C8.23466 31.5566 7.89259 31.253 7.82191 30.8393L7.48694 28.8738C7.30798 27.8243 6.68044 26.9109 5.76511 26.3673L4.06255 25.3564C3.7038 25.1434 3.54233 24.7173 3.67003 24.3202L4.28485 22.4086C4.60901 21.3999 4.47667 20.3037 3.92131 19.4011L2.87077 17.694C2.65256 17.3394 2.70739 16.8875 3.00407 16.5952L4.42485 15.1958C5.18091 14.4508 5.57151 13.4164 5.49604 12.3575L5.35372 10.3586C5.32405 9.94124 5.583 9.5654 5.98358 9.44468L7.86442 8.87757C8.88736 8.56913 9.71779 7.83003 10.1426 6.85003L10.9305 5.03303C11.0725 4.70545 11.4001 4.49819 11.7482 4.49819C11.8041 4.49819 11.8606 4.50352 11.9169 4.51459L13.8256 4.88907C14.8802 5.0962 15.9637 4.82782 16.7993 4.15284L18.3188 2.9262C18.6421 2.66506 19.1117 2.66506 19.4354 2.9262L20.9546 4.15284C21.7902 4.82768 22.874 5.09579 23.9282 4.8892L25.8369 4.51459C26.2431 4.43461 26.6586 4.65295 26.8235 5.03317L27.6109 6.84975C28.0358 7.83003 28.8664 8.56927 29.8892 8.87757L31.7704 9.44468C32.1709 9.5654 32.4299 9.94138 32.4003 10.3586L32.2579 12.3576C32.1825 13.4164 32.5731 14.4508 33.3293 15.1959L34.7499 16.5953C35.0466 16.8878 35.1016 17.3395 34.8832 17.6942Z" transform="translate(12.9397 16.1273)" fill="#333333"/>
<path d="M9.39077 0.176964C8.73343 -0.194365 7.89944 0.0376485 7.52811 0.695403L0.176874 13.7172C-0.194317 14.3748 0.0376956 15.2087 0.695313 15.5799C0.907638 15.6998 1.13842 15.7568 1.36619 15.7568C1.84334 15.7568 2.30668 15.5066 2.55797 15.0614L9.90921 2.03962C10.2804 1.38201 10.0484 0.548156 9.39077 0.176964Z" transform="translate(25.9854 27.832)" fill="#333333"/>
<path d="M4.10156 1.46866e-06C1.83996 1.46866e-06 -1.90258e-06 1.83996 -1.90258e-06 4.10157C-1.90258e-06 6.36317 1.83996 8.20313 4.10156 8.20313C6.36317 8.20313 8.20313 6.36317 8.20313 4.10157C8.20313 1.83996 6.36317 1.46866e-06 4.10156 1.46866e-06ZM4.10156 5.46876C3.3477 5.46876 2.73438 4.85544 2.73438 4.10157C2.73438 3.3477 3.3477 2.73438 4.10156 2.73438C4.85543 2.73438 5.46875 3.3477 5.46875 4.10157C5.46875 4.85544 4.85543 5.46876 4.10156 5.46876Z" transform="translate(32.4922 36.167)" fill="#333333"/>
<path d="M4.10157 -3.50476e-07C1.83996 -3.50476e-07 7.84398e-07 1.83996 7.84398e-07 4.10157C7.84398e-07 6.36317 1.83996 8.20313 4.10157 8.20313C6.36317 8.20313 8.20313 6.36317 8.20313 4.10157C8.20313 1.83983 6.36317 -3.50476e-07 4.10157 -3.50476e-07ZM4.10157 5.46875C3.3477 5.46875 2.73438 4.85543 2.73438 4.10157C2.73438 3.3477 3.3477 2.73438 4.10157 2.73438C4.85543 2.73438 5.46876 3.3477 5.46876 4.10157C5.46876 4.85543 4.85543 5.46875 4.10157 5.46875Z" transform="translate(22.9377 25.6298)" fill="#333333"/>
</svg>
