<svg width="56" height="56" viewBox="0 0 56 56" fill="none" xmlns="http://www.w3.org/2000/svg">
<path d="M55.6505 54.3377L50.9838 50.6044C50.8183 50.472 50.6125 50.3999 50.4005 50.4H41.5049L38.3941 46.6667H51.3338C53.9098 46.6636 55.9975 44.576 56.0005 42V4.66667C55.9975 2.09067 53.9098 0.00303333 51.3338 0H4.66715C2.09115 0.00303333 0.00351779 2.09067 0.000484458 4.66667V42C0.00351779 44.576 2.09115 46.6636 4.66715 46.6667H17.6078L14.497 50.4H5.60048C5.3885 50.3999 5.1827 50.472 5.01715 50.6044L0.350484 54.3377C-0.0521322 54.6596 -0.117466 55.247 0.204418 55.6495C0.381634 55.8711 0.650084 56.0001 0.933818 56H55.0672C55.5826 56.0002 56.0007 55.5826 56.0009 55.0671C56.0011 54.7833 55.8722 54.5149 55.6505 54.3377ZM4.66715 44.8C3.12073 44.8 1.86715 43.5464 1.86715 42V4.66667C1.86715 3.12025 3.12073 1.86667 4.66715 1.86667H51.3338C52.8802 1.86667 54.1338 3.12025 54.1338 4.66667V42C54.1338 43.5464 52.8802 44.8 51.3338 44.8H4.66715ZM20.0382 46.6667H35.9628L39.0745 50.4H16.9265L20.0382 46.6667ZM3.59475 54.1333L5.92808 52.2667H50.0748L52.4062 54.1333H3.59475Z" fill="#333333"/>
<path d="M47.6 1.887e-07H0.933334C0.4179 1.887e-07 1.887e-07 0.4179 1.887e-07 0.933334V34.5333C1.887e-07 35.0488 0.4179 35.4667 0.933334 35.4667H47.6C48.1154 35.4667 48.5333 35.0488 48.5333 34.5333V0.933334C48.5333 0.4179 48.1154 1.887e-07 47.6 1.887e-07ZM46.6667 33.6H1.86667V1.86667H46.6667V33.6Z" transform="translate(3.73389 3.7334)" fill="#333333"/>
<path d="M9.33333 0H0V1.86667H9.33333V0Z" transform="translate(23.334 41.0669)" fill="#333333"/>
<path d="M-2.56348e-07 5.6H1.86667C1.86667 3.53815 3.53815 1.86667 5.6 1.86667V-2.56348e-07C2.50868 0.00361641 0.00361641 2.50868 -2.56348e-07 5.6Z" transform="translate(19.6006 10.2666)" fill="#333333"/>
<path d="M40.9064 -2.56348e-07H1.70637C1.19093 -2.56348e-07 0.773033 0.4179 0.773033 0.933333V4.66667C0.773033 5.1821 1.19093 5.6 1.70637 5.6H10.5964C9.77503 7.88468 9.99425 10.4143 11.1965 12.5235L10.1064 13.6136L9.8329 13.3401C9.46843 12.9758 8.87764 12.9758 8.51317 13.3401L1.0465 20.8068C-0.348833 22.2021 -0.348833 24.4645 1.0465 25.8599C2.44183 27.2552 4.70423 27.2552 6.09957 25.8599L13.5662 18.3932C13.9306 18.0287 13.9306 17.4379 13.5662 17.0735L13.2928 16.8L14.3829 15.7099C18.407 17.9975 23.5236 16.5898 25.8112 12.5657C27.018 10.4428 27.239 7.89927 26.4164 5.6H40.9064C41.4218 5.6 41.8397 5.1821 41.8397 4.66667V0.933333C41.8397 0.4179 41.4218 -2.56348e-07 40.9064 -2.56348e-07ZM2.6397 3.73333V1.86667H13.2386C12.5777 2.39948 12.0007 3.02878 11.5269 3.73333H2.6397ZM4.77983 24.5401C4.09897 25.1923 3.0184 25.1691 2.36623 24.4882C1.73378 23.828 1.73378 22.7868 2.36623 22.1265L9.17303 15.3197L9.4465 15.5932L11.3132 17.4599L11.5866 17.7333L4.77983 24.5401ZM11.973 15.4803L11.4261 14.9333L12.309 14.0504C12.4832 14.2408 12.6656 14.4232 12.856 14.5973L11.973 15.4803ZM18.5064 14.9333C14.8981 14.9333 11.973 12.0083 11.973 8.4C11.973 4.79173 14.8981 1.86667 18.5064 1.86667C22.1129 1.87075 25.0356 4.79348 25.0397 8.4C25.0397 12.0083 22.1146 14.9333 18.5064 14.9333ZM39.973 3.73333H25.4858C25.0121 3.02878 24.435 2.39948 23.7741 1.86667H39.973V3.73333Z" transform="translate(6.69434 7.46655)" fill="#333333"/>
<path d="M29.54 -2.56348e-07H23.94V1.86667H27.2869L21.8867 7.26413L18.7553 5.698C18.4141 5.52755 18.0035 5.58192 17.7184 5.8352L9.85787 12.824L7.658 11.3568C7.3101 11.1251 6.85067 11.153 6.53333 11.4249L9.96908e-08 17.0249L1.21333 18.4427L7.21 13.3028L9.422 14.7775C9.77492 15.013 10.2424 14.9808 10.5597 14.6991L18.4875 7.6524L21.6561 9.23907C22.0154 9.41862 22.4491 9.34838 22.7332 9.06453L28.6067 3.1864V6.53333H30.4733V0.933333C30.4733 0.4179 30.0554 -2.56348e-07 29.54 -2.56348e-07Z" transform="translate(18.0605 16.8)" fill="#333333"/>
</svg>
